# xmcd
#
# Track frame offsets:
# 150
# 13234
# 25339
# 39141
# 55257
# 71095
# 84352
# 100327
# 117632
# 137057
# 159751
#
# Disc length: 2289 seconds
#
#
# Revision: 0
# Processed by: cddbd v1.5.1PL0 Copyright (c) Steve Scherf et al.
# Submitted via: FreeRIP 2.90 
#
DISCID=8b08ef0b
DTITLE=Shaun Nicks - The Underground All-Stars Compilation
DYEAR=1900
DGENRE=A Cappella
TTITLE0=Shaun Nicks
TTITLE1=Neomire
TTITLE2=E. Harper
TTITLE3=Rocky
TTITLE4=Chubby
TTITLE5=Hop
TTITLE6=Fire Water Music Group
TTITLE7=Hush
TTITLE8=Lord Nez
TTITLE9=El-O
TTITLE10=Mercy Multiple
EXTD=
EXTT0=
EXTT1=
EXTT2=
EXTT3=
EXTT4=
EXTT5=
EXTT6=
EXTT7=
EXTT8=
EXTT9=
EXTT10=
PLAYORDER=
